<?xml version="1.0" encoding="utf-8"?>
<!-- Generator: Adobe Illustrator 26.0.3, SVG Export Plug-In . SVG Version: 6.00 Build 0)  -->
<svg version="1.1" id="Layer_1" xmlns="http://www.w3.org/2000/svg" xmlns:xlink="http://www.w3.org/1999/xlink" x="0px" y="0px"
	 viewBox="0 0 760 500" style="enable-background:new 0 0 760 500;" xml:space="preserve">
<style type="text/css">
	@import url('https://fonts.googleapis.com/css2?family=Plus+Jakarta+Sans:wght@800;900&amp;display=swap');
	.st0{fill:#2B4E64;}
	.st1{font-family:'Plus Jakarta Sans', -apple-system, sans-serif; font-weight: 800;}
	.st2{font-size:42px;}
	.st3{letter-spacing:2.5px;}
	.st4{font-family:'Plus Jakarta Sans', -apple-system, sans-serif; font-weight: 900;}
	.st5{font-size:68px;}
</style>
<path class="st0" d="M732.3,200.1c-13.1-5.3-25.8-10.5-38.5-15.6C608,149.7,522.1,114.8,436.2,80c-31.8-12.9-63.5-26-95.4-38.7
	c-3.4-1.4-7.9-1.7-11.4-0.7c-32.1,8.3-64.2,16.9-96.2,25.4C185.6,78.5,138,91,90.5,103.7c-16.2,4.3-32.4,8.8-48.6,12.9
	c-3.7,0.9-4.9,2.4-4.9,6.2c0.1,64.6,0.1,129.1,0,193.7c0,3.3,0.4,5.4,4.6,5.2c25-1.2,50-2.3,75-3.5c1.5-0.1,2.9-0.5,4.9-0.9
	c-0.4-2-0.6-3.7-1.1-5.2C104.2,260.4,88,208.7,71.8,157c-4.1-13-4.2-12.9,9.1-15.8c20.3-4.5,40.6-9,61.8-13.7
	c6.9,30.4,13.7,60.5,20.5,90.6c0.5,0,0.9,0,1.4,0c2.3-10.6,4.6-21.1,6.8-31.7c4.6-21.6,9.2-43.3,14-64.9c0.4-1.7,2.6-3.7,4.4-4.1
	c27.1-6.2,54.3-12.2,81.5-18.2c1.2-0.3,2.6,0,4.7,0c-0.9,3.1-1.5,5.7-2.4,8.4c-22.3,68.3-44.6,136.6-67,204.9
	c-4.1,12.7-4.2,12.7-17.5,13.4c-14.9,0.8-29.7,1.4-44.6,2.1c-2.1,0.1-4.1,0.3-7.2,0.6c1.4,5.5,2.6,10.6,3.9,15.6
	c1.5,5.3,3.5,10.5,4.5,16c0.9,4.9,3.2,5.9,7.8,5.9c57.1-0.1,114.2-0.6,171.3,0c101,1.1,202,2.9,303.1,4.4
	c32.8,0.5,65.7,0.9,98.5,1.3c1.5,0,3.2-0.2,4.5,0.3c0.9,0.4,2.1,1.8,2.1,2.7c0,0.8-1.4,2-2.4,2.3c-1.4,0.4-3,0.1-4.6,0.1
	c-193.5,0-387,0-580.5,0.1c-4.5,0-7.1-0.5-8.4-5.8c-3-12.8-7.1-25.3-10.5-38c-1-3.7-2.8-4.7-6.5-4.5c-29.2,1.5-58.4,2.8-87.5,4.4
	c-5.6,0.3-7.2-1-7.1-6.6c0.2-70.5,0.2-141,0-211.4c0-5,1.9-6.6,6.1-7.7c48.9-12.8,97.7-25.7,146.6-38.7
	c43.3-11.5,86.6-23.1,129.9-34.6c8.3-2.2,16.6-4.5,24.9-6.4c2.2-0.5,4.9,0,7,0.9c56.1,23.6,112.1,47.2,168.2,70.9
	c73.3,31,146.5,62,219.8,92.9C731.1,193.9,734.6,194.6,732.3,200.1z M82.2,152.3c0.5,1.9,0.6,2.8,0.9,3.7
	c16.4,52.2,32.8,104.4,49.1,156.7c1.2,3.8,3.1,4.6,6.6,4.5c16-0.7,32.1-1.7,48.1-1.9c5.9-0.1,8.3-2.4,10-7.6
	c19.2-59.3,38.6-118.6,57.9-177.9c1.6-5,3.1-10,5.1-16.4c-6.8,1.5-12.3,2.7-17.8,3.9c-14,3-27.9,6.1-41.9,9.1
	c-3.2,0.7-5.1,2.1-5.8,5.8c-3,15.5-6.5,31-9.8,46.5c-4.6,21.6-9.3,43.3-13.7,64.9c-0.9,4.6-3.4,5.1-7.3,5.1c-3.5,0-5.2-0.6-6.1-4.7
	c-5.1-24.1-10.7-48-16.2-72c-2.3-10.2-4.7-20.3-7.1-31.1C116.5,144.8,99.5,148.5,82.2,152.3z"/>
<path class="st0" d="M732.4,229.7c-19.6-6.7-38.9-13.2-58.2-19.7c-55.6-18.8-111.3-37.6-166.9-56.4c-48.1-16.3-96.1-32.6-144.1-49
	c-5.8-2-11.6-3.9-17.4-5.8c-9.9-3.1-9.9-3.2-8.5-14.6c8.5,2.9,16.9,5.8,25.2,8.7c43.9,15.5,87.7,31,131.6,46.6
	c39.9,14.1,79.8,28.4,119.7,42.5c38.1,13.5,76.2,27,114.3,40.4C731.1,223.5,734.7,224.2,732.4,229.7z"/>
<path class="st0" d="M709.5,346.1c-36.8-2.5-73.5-5-110.3-7.5c-37.9-2.6-75.8-5.3-113.7-7.8c-36.8-2.5-73.5-4.8-110.3-7.3
	c-11.2-0.7-22.5-1.8-33.7-2.3c-5.2-0.2-4.9-3.5-5-7c-0.1-4.6,2.8-4.2,5.8-4c19.2,1.5,38.4,3,57.6,4.6c30.8,2.5,61.6,5,92.4,7.5
	c32,2.6,63.9,5.2,95.9,7.7c31.8,2.5,63.6,5,95.3,7.5c14.8,1.2,29.7,2.3,44.5,3.7c1.8,0.2,3.4,2.5,5,3.8c-1.8,0.8-3.6,2.2-5.4,2.2
	C721.7,347.1,715.6,346.5,709.5,346.1C709.5,346.1,709.5,346.1,709.5,346.1z"/>
<path class="st0" d="M732.4,259c-6.6-1.7-13.1-3.5-19.7-5.2c-44.4-12-88.7-23.9-133.1-35.9c-41.8-11.3-83.5-22.7-125.3-34.1
	c-34-9.2-68.1-18.5-102.1-27.7c-2.6-0.7-5.1-1.5-7.7-2.1c-8.6-2.1-9-2.9-7-12.9c2.7,0.6,5.5,1,8.1,1.7
	c57.2,16.4,114.4,32.8,171.6,49.2c48.4,13.8,96.8,27.6,145.2,41.4c21.8,6.2,43.6,12.5,65.4,18.9C730.5,253,734.9,253.2,732.4,259z"
	/>
<path class="st0" d="M732.7,288.6c-13.3-2.7-25.9-5.3-38.6-7.8c-37.8-7.6-75.5-15.2-113.2-22.8c-28.4-5.8-56.7-11.7-85.1-17.5
	c-37.5-7.6-75.1-15.1-112.6-22.7c-12.9-2.6-25.8-5.3-38.6-8c-8.7-1.8-9-2.3-6.9-12.5c7.3,1.5,14.7,2.9,22.1,4.5
	c43.2,9.4,86.4,18.8,129.6,28.2c42.3,9.2,84.5,18.6,126.8,27.8c37.1,8.1,74.1,16.1,111.2,24.2C730.2,282.7,734.1,282.6,732.7,288.6z
	"/>
<path class="st0" d="M732.2,318c-13.2-1.7-26.4-3.4-39.6-5.2c-27.8-3.7-55.6-7.5-83.4-11.2c-25.9-3.5-51.8-7.2-77.7-10.7
	c-35.7-4.8-71.5-9.6-107.2-14.5c-27.8-3.8-55.6-7.6-83.4-11.5c-8-1.1-2.7-7-4.6-11.7c10.3,1.5,19.5,2.8,28.7,4.2
	c31.7,4.8,63.4,9.6,95.1,14.4c32.3,4.9,64.5,9.7,96.8,14.6c31.1,4.7,62.3,9.3,93.4,14c26.4,3.9,52.8,7.8,79.2,11.9
	c1.6,0.2,2.9,2.4,4.3,3.6C733.3,316.6,732.8,317.3,732.2,318z"/>
<text transform="matrix(1 0 0 1 30.164 375.5602)" class="st0 st1 st2 st3">LAB</text>

<!-- SPREAD "iViDLab" EVENLY ACROSS FULL HORIZONTAL WIDTH OF LOGO (textLength="705") -->
<text transform="matrix(1 0 0 1 25 460)" textLength="705" lengthAdjust="spacing" class="st0 st4 st5">iViDLab</text>
</svg>
