<svg xmlns="http://www.w3.org/2000/svg" viewBox="0 0 500 240" width="100%" height="100%">
  <defs>
    <linearGradient id="goldLineGrad" x1="0%" y1="0%" x2="100%" y2="100%">
      <stop offset="0%" stop-color="#F5D77F"/>
      <stop offset="50%" stop-color="#D4AF37"/>
      <stop offset="100%" stop-color="#AA7C11"/>
    </linearGradient>
  </defs>

  <!-- Metallic Gold Smooth Continuous Solid Vector Line Art -->
  <g stroke="url(#goldLineGrad)" stroke-width="4.5" stroke-linecap="round" stroke-linejoin="round" fill="none">
    <polygon points="62,82 208,62 208,180 62,180" stroke-width="5" />
    <polygon points="85,92 122,185 158,102 196,102 154,185 122,185 85,92" stroke-width="4.5" />
    <path d="M 208,62 L 235,46 L 440,126" stroke-width="5" />
    <path d="M 122,202 L 440,202" stroke-width="5" />
    <path d="M 208,180 L 122,202" stroke-width="5" />
    <line x1="225" y1="75" x2="440" y2="139" stroke-width="4" />
    <line x1="225" y1="95" x2="440" y2="151" stroke-width="4" />
    <line x1="225" y1="115" x2="440" y2="164" stroke-width="4" />
    <line x1="225" y1="135" x2="440" y2="177" stroke-width="4" />
    <line x1="225" y1="155" x2="440" y2="190" stroke-width="4" />
  </g>
</svg>
