<?xml version="1.0" encoding="utf-8" ?>
<svg baseProfile="full" height="1080" version="1.1" viewBox="0 0 1000 1080" width="1000" xmlns="http://www.w3.org/2000/svg" xmlns:ev="http://www.w3.org/2001/xml-events" xmlns:xlink="http://www.w3.org/1999/xlink"><defs /><polygon fill="none" points="833.0,1038.0 842.0,1039.0 847.0,1038.0 850.0,1043.0 847.0,1049.0 846.0,1040.0 842.0,1041.0 839.0,1049.0 839.0,1040.0 835.0,1040.0 833.0,1050.0" stroke="#2B4E64" stroke-width="1.5" /><polygon fill="none" points="820.0,1039.0 827.0,1038.0 829.0,1040.0 830.0,1046.0 827.0,1050.0 820.0,1049.0 818.0,1045.0" stroke="#2B4E64" stroke-width="1.5" /><polygon fill="none" points="807.0,1039.0 814.0,1038.0 815.0,1042.0 813.0,1040.0 809.0,1040.0 808.0,1042.0 809.0,1048.0 813.0,1048.0 815.0,1046.0 816.0,1048.0 814.0,1050.0 808.0,1050.0 806.0,1048.0 805.0,1043.0" stroke="#2B4E64" stroke-width="1.5" /><polygon fill="none" points="763.0,1039.0 770.0,1038.0 772.0,1040.0 773.0,1046.0 770.0,1050.0 763.0,1049.0 761.0,1046.0 761.0,1043.0" stroke="#2B4E64" stroke-width="1.5" /><polygon fill="none" points="720.0,1039.0 727.0,1038.0 729.0,1040.0 730.0,1047.0 727.0,1050.0 720.0,1049.0 718.0,1045.0" stroke="#2B4E64" stroke-width="1.5" /><polygon fill="none" points="699.0,1039.0 706.0,1038.0 707.0,1042.0 705.0,1040.0 701.0,1040.0 700.0,1042.0 701.0,1048.0 705.0,1048.0 707.0,1046.0 708.0,1048.0 706.0,1050.0 700.0,1050.0 698.0,1048.0 697.0,1043.0" stroke="#2B4E64" stroke-width="1.5" /><polygon fill="none" points="687.0,1038.0 693.0,1038.0 695.0,1040.0 694.0,1044.0 687.0,1045.0 688.0,1048.0 692.0,1048.0 694.0,1046.0 695.0,1048.0 693.0,1050.0 687.0,1050.0 685.0,1048.0 684.0,1043.0" stroke="#2B4E64" stroke-width="1.5" /><polygon fill="none" points="877.0,1037.0 880.0,1041.0 879.0,1047.0 885.0,1047.0 884.0,1041.0 879.0,1040.0 885.0,1039.0 887.0,1041.0 888.0,1046.0 885.0,1050.0 879.0,1050.0 877.0,1048.0 875.0,1043.0" stroke="#2B4E64" stroke-width="1.5" /><polygon fill="none" points="832.0,1038.0 832.0,1050.0 834.0,1050.0 834.0,1042.0 836.0,1040.0 839.0,1041.0 840.0,1050.0 842.0,1050.0 842.0,1042.0 845.0,1040.0 847.0,1042.0 847.0,1050.0 850.0,1049.0 850.0,1043.0 848.0,1038.0" stroke="#2B4E64" stroke-width="1.5" /><polygon fill="none" points="821.0,1038.0 818.0,1043.0 819.0,1048.0 821.0,1050.0 829.0,1049.0 830.0,1047.0 829.0,1039.0" stroke="#2B4E64" stroke-width="1.5" /><polygon fill="none" points="808.0,1038.0 805.0,1043.0 806.0,1048.0 808.0,1050.0 816.0,1049.0 816.0,1046.0 814.0,1046.0 812.0,1048.0 810.0,1048.0 808.0,1046.0 808.0,1042.0 810.0,1040.0 816.0,1042.0 815.0,1038.0" stroke="#2B4E64" stroke-width="1.5" /><polygon fill="none" points="777.0,1038.0 775.0,1040.0 775.0,1043.0 776.0,1039.0 783.0,1038.0 784.0,1042.0 782.0,1040.0 778.0,1040.0 777.0,1042.0 778.0,1048.0 782.0,1048.0 784.0,1046.0 785.0,1048.0 783.0,1050.0 777.0,1050.0 775.0,1048.0 775.0,1045.0 775.0,1048.0 777.0,1050.0 785.0,1049.0 785.0,1046.0 783.0,1046.0 781.0,1048.0 779.0,1048.0 777.0,1046.0 777.0,1042.0 779.0,1040.0 785.0,1042.0 784.0,1038.0" stroke="#2B4E64" stroke-width="1.5" /><polygon fill="none" points="764.0,1038.0 761.0,1043.0 762.0,1048.0 764.0,1050.0 772.0,1049.0 773.0,1047.0 772.0,1039.0" stroke="#2B4E64" stroke-width="1.5" /><polygon fill="none" points="721.0,1038.0 718.0,1043.0 719.0,1048.0 721.0,1050.0 729.0,1049.0 730.0,1047.0 729.0,1039.0" stroke="#2B4E64" stroke-width="1.5" /><polygon fill="none" points="700.0,1038.0 697.0,1043.0 698.0,1048.0 700.0,1050.0 708.0,1049.0 708.0,1046.0 706.0,1046.0 704.0,1048.0 702.0,1048.0 700.0,1046.0 700.0,1042.0 702.0,1040.0 708.0,1042.0 707.0,1038.0" stroke="#2B4E64" stroke-width="1.5" /><polygon fill="none" points="687.0,1038.0 684.0,1043.0 685.0,1048.0 687.0,1050.0 695.0,1049.0 695.0,1046.0 692.0,1045.0 695.0,1044.0 695.0,1040.0 693.0,1038.0" stroke="#2B4E64" stroke-width="1.5" /><polygon fill="none" points="937.0,1036.0 939.0,1036.0 942.0,1040.0 942.0,1044.0 939.0,1048.0 937.0,1048.0 934.0,1045.0 934.0,1039.0" stroke="#2B4E64" stroke-width="1.5" /><polygon fill="none" points="170.0,1036.0 173.0,1036.0 177.0,1040.0 177.0,1044.0 173.0,1048.0 170.0,1048.0 166.0,1044.0 166.0,1040.0" stroke="#2B4E64" stroke-width="1.5" /><polygon fill="none" points="105.0,1036.0 110.0,1037.0 112.0,1040.0 112.0,1044.0 108.0,1048.0 105.0,1048.0 101.0,1044.0 101.0,1040.0" stroke="#2B4E64" stroke-width="1.5" /><polygon fill="none" points="169.0,1036.0 166.0,1040.0 167.0,1046.0 169.0,1048.0 176.0,1047.0 177.0,1044.0 176.0,1038.0 174.0,1036.0" stroke="#2B4E64" stroke-width="1.5" /><polygon fill="none" points="104.0,1036.0 101.0,1040.0 102.0,1046.0 104.0,1048.0 111.0,1047.0 112.0,1044.0 111.0,1037.0" stroke="#2B4E64" stroke-width="1.5" /><polygon fill="none" points="962.0,1034.0 968.0,1034.0 971.0,1037.0 969.0,1043.0 964.0,1047.0 970.0,1049.0 967.0,1051.0 964.0,1050.0 961.0,1051.0 959.0,1049.0 968.0,1040.0 967.0,1036.0 963.0,1036.0 961.0,1039.0 960.0,1036.0" stroke="#2B4E64" stroke-width="1.5" /><polygon fill="none" points="935.0,1034.0 941.0,1034.0 944.0,1038.0 944.0,1046.0 941.0,1050.0 935.0,1050.0 932.0,1047.0 932.0,1038.0" stroke="#2B4E64" stroke-width="1.5" /><polygon fill="none" points="924.0,1035.0 927.0,1035.0 929.0,1046.0 927.0,1047.0 926.0,1050.0 924.0,1047.0 919.0,1047.0 917.0,1045.0" stroke="#2B4E64" stroke-width="1.5" /><polygon fill="none" points="868.0,1035.0 871.0,1035.0 873.0,1046.0 871.0,1047.0 870.0,1050.0 868.0,1047.0 863.0,1047.0 861.0,1045.0" stroke="#2B4E64" stroke-width="1.5" /><polygon fill="none" points="789.0,1034.0 790.0,1042.0 797.0,1039.0 794.0,1042.0 794.0,1044.0 798.0,1049.0 796.0,1050.0 792.0,1045.0 790.0,1046.0 789.0,1050.0" stroke="#2B4E64" stroke-width="1.5" /><polygon fill="none" points="757.0,1035.0 755.0,1035.0 753.0,1039.0 755.0,1041.0 755.0,1050.0 760.0,1049.0 757.0,1047.0 758.0,1040.0 759.0,1049.0 755.0,1049.0 755.0,1037.0 756.0,1035.0 760.0,1039.0" stroke="#2B4E64" stroke-width="1.5" /><polygon fill="none" points="743.0,1034.0 749.0,1034.0 751.0,1036.0 750.0,1039.0 748.0,1036.0 744.0,1036.0 742.0,1038.0 743.0,1040.0 748.0,1041.0 751.0,1043.0 752.0,1047.0 749.0,1050.0 742.0,1050.0 740.0,1048.0 741.0,1045.0 743.0,1048.0 749.0,1047.0 749.0,1044.0 744.0,1043.0 740.0,1040.0 740.0,1037.0" stroke="#2B4E64" stroke-width="1.5" /><polygon fill="none" points="714.0,1035.0 712.0,1035.0 710.0,1038.0 710.0,1040.0 712.0,1041.0 712.0,1050.0 717.0,1049.0 714.0,1047.0 715.0,1040.0 716.0,1049.0 712.0,1049.0 710.0,1038.0 713.0,1035.0 717.0,1039.0" stroke="#2B4E64" stroke-width="1.5" /><polygon fill="none" points="669.0,1035.0 672.0,1035.0 676.0,1046.0 678.0,1045.0 681.0,1035.0 684.0,1035.0 678.0,1050.0 674.0,1049.0" stroke="#2B4E64" stroke-width="1.5" /><polygon fill="none" points="960.0,1035.0 960.0,1039.0 962.0,1039.0 964.0,1036.0 966.0,1036.0 968.0,1038.0 968.0,1040.0 960.0,1047.0 959.0,1050.0 961.0,1051.0 971.0,1050.0 969.0,1048.0 964.0,1047.0 970.0,1042.0 971.0,1039.0 970.0,1035.0 962.0,1034.0" stroke="#2B4E64" stroke-width="1.5" /><polygon fill="none" points="933.0,1035.0 931.0,1042.0 933.0,1049.0 941.0,1050.0 944.0,1046.0 943.0,1036.0 941.0,1034.0" stroke="#2B4E64" stroke-width="1.5" /><polygon fill="none" points="889.0,1038.0 890.0,1043.0 892.0,1044.0 897.0,1044.0 892.0,1044.0 890.0,1042.0 889.0,1038.0 892.0,1034.0 898.0,1034.0 901.0,1037.0 902.0,1040.0 901.0,1047.0 898.0,1050.0 893.0,1050.0 890.0,1047.0 892.0,1046.0 894.0,1048.0 897.0,1048.0 899.0,1046.0 899.0,1044.0 896.0,1048.0 890.0,1046.0 890.0,1048.0 892.0,1050.0 899.0,1050.0 901.0,1048.0 903.0,1039.0 904.0,1043.0 911.0,1044.0 906.0,1044.0 904.0,1042.0 903.0,1038.0 906.0,1034.0 912.0,1034.0 915.0,1037.0 916.0,1040.0 915.0,1047.0 912.0,1050.0 907.0,1050.0 904.0,1047.0 906.0,1046.0 908.0,1048.0 911.0,1048.0 913.0,1046.0 913.0,1044.0 910.0,1048.0 904.0,1046.0 904.0,1048.0 906.0,1050.0 914.0,1049.0 916.0,1043.0 919.0,1047.0 923.0,1046.0 925.0,1048.0 925.0,1050.0 927.0,1050.0 929.0,1045.0 927.0,1043.0 927.0,1034.0 924.0,1034.0 917.0,1044.0 915.0,1036.0 913.0,1034.0 906.0,1034.0 902.0,1040.0 901.0,1036.0 899.0,1034.0 892.0,1034.0" stroke="#2B4E64" stroke-width="1.5" /><polygon fill="none" points="877.0,1035.0 875.0,1041.0 877.0,1049.0 885.0,1050.0 888.0,1046.0 887.0,1040.0 885.0,1039.0 879.0,1040.0 879.0,1037.0 881.0,1036.0 887.0,1037.0 886.0,1034.0" stroke="#2B4E64" stroke-width="1.5" /><polygon fill="none" points="868.0,1034.0 862.0,1042.0 861.0,1046.0 863.0,1047.0 867.0,1046.0 869.0,1048.0 869.0,1050.0 871.0,1050.0 873.0,1045.0 871.0,1043.0 871.0,1034.0" stroke="#2B4E64" stroke-width="1.5" /><polygon fill="none" points="788.0,1034.0 788.0,1050.0 790.0,1050.0 792.0,1046.0 794.0,1049.0 798.0,1049.0 794.0,1043.0 797.0,1040.0 797.0,1038.0 795.0,1038.0 791.0,1042.0 790.0,1034.0" stroke="#2B4E64" stroke-width="1.5" /><polygon fill="none" points="751.0,1036.0 749.0,1034.0 742.0,1034.0 740.0,1036.0 739.0,1040.0 732.0,1038.0 733.0,1051.0 734.0,1043.0 737.0,1040.0 744.0,1043.0 747.0,1043.0 749.0,1046.0 747.0,1048.0 744.0,1048.0 742.0,1045.0 740.0,1045.0 740.0,1048.0 742.0,1050.0 751.0,1049.0 752.0,1047.0 751.0,1043.0 748.0,1041.0 745.0,1041.0 742.0,1038.0 744.0,1036.0 747.0,1036.0 750.0,1039.0" stroke="#2B4E64" stroke-width="1.5" /><polygon fill="none" points="669.0,1035.0 675.0,1050.0 679.0,1050.0 679.0,1047.0 684.0,1034.0 681.0,1034.0 678.0,1044.0 675.0,1044.0 672.0,1034.0" stroke="#2B4E64" stroke-width="1.5" /><polygon fill="none" points="188.0,1033.0 195.0,1033.0 199.0,1037.0 198.0,1040.0 194.0,1036.0 189.0,1036.0 186.0,1041.0 186.0,1044.0 189.0,1048.0 199.0,1047.0 195.0,1051.0 188.0,1051.0 183.0,1046.0 183.0,1038.0" stroke="#2B4E64" stroke-width="1.5" /><polygon fill="none" points="168.0,1033.0 175.0,1033.0 180.0,1038.0 181.0,1041.0 180.0,1046.0 175.0,1051.0 168.0,1051.0 163.0,1046.0 163.0,1038.0" stroke="#2B4E64" stroke-width="1.5" /><polygon fill="none" points="103.0,1033.0 110.0,1033.0 115.0,1038.0 116.0,1041.0 115.0,1046.0 110.0,1051.0 103.0,1051.0 98.0,1046.0 98.0,1038.0" stroke="#2B4E64" stroke-width="1.5" /><polygon fill="none" points="72.0,1033.0 79.0,1033.0 83.0,1037.0 82.0,1040.0 78.0,1036.0 73.0,1036.0 70.0,1041.0 71.0,1046.0 73.0,1048.0 83.0,1047.0 79.0,1051.0 72.0,1051.0 67.0,1046.0 67.0,1038.0" stroke="#2B4E64" stroke-width="1.5" /><polygon fill="none" points="53.0,1033.0 60.0,1033.0 64.0,1037.0 65.0,1041.0 63.0,1043.0 58.0,1042.0 51.0,1043.0 54.0,1048.0 64.0,1047.0 60.0,1051.0 53.0,1051.0 48.0,1046.0 48.0,1038.0" stroke="#2B4E64" stroke-width="1.5" /><polygon fill="none" points="956.0,1033.0 950.0,1033.0 946.0,1035.0 955.0,1037.0 951.0,1045.0 950.0,1050.0 955.0,1036.0 947.0,1035.0 949.0,1033.0 951.0,1034.0 956.0,1033.0 957.0,1039.0 952.0,1050.0 958.0,1036.0 958.0,1034.0" stroke="#2B4E64" stroke-width="1.5" /><polygon fill="none" points="187.0,1033.0 183.0,1037.0 183.0,1047.0 187.0,1051.0 196.0,1051.0 199.0,1048.0 199.0,1045.0 196.0,1045.0 193.0,1048.0 190.0,1048.0 186.0,1044.0 186.0,1041.0 190.0,1036.0 193.0,1036.0 198.0,1040.0 199.0,1036.0 196.0,1033.0" stroke="#2B4E64" stroke-width="1.5" /><polygon fill="none" points="167.0,1033.0 163.0,1037.0 163.0,1047.0 167.0,1051.0 176.0,1051.0 180.0,1047.0 181.0,1043.0 180.0,1037.0 176.0,1033.0" stroke="#2B4E64" stroke-width="1.5" /><polygon fill="none" points="102.0,1033.0 98.0,1037.0 98.0,1047.0 102.0,1051.0 111.0,1051.0 115.0,1047.0 116.0,1043.0 115.0,1037.0 111.0,1033.0" stroke="#2B4E64" stroke-width="1.5" /><polygon fill="none" points="71.0,1033.0 67.0,1037.0 67.0,1047.0 71.0,1051.0 80.0,1051.0 83.0,1048.0 83.0,1045.0 80.0,1045.0 77.0,1048.0 74.0,1048.0 71.0,1045.0 70.0,1041.0 74.0,1036.0 77.0,1036.0 82.0,1040.0 83.0,1036.0 80.0,1033.0" stroke="#2B4E64" stroke-width="1.5" /><polygon fill="none" points="52.0,1033.0 48.0,1037.0 48.0,1047.0 52.0,1051.0 61.0,1051.0 64.0,1048.0 64.0,1045.0 61.0,1045.0 58.0,1048.0 55.0,1048.0 51.0,1044.0 53.0,1042.0 55.0,1043.0 65.0,1042.0 64.0,1036.0 61.0,1033.0" stroke="#2B4E64" stroke-width="1.5" /><polygon fill="none" points="128.0,1033.0 124.0,1034.0 127.0,1036.0 124.0,1037.0 122.0,1040.0 122.0,1050.0 120.0,1052.0 118.0,1050.0 118.0,1034.0 120.0,1032.0 122.0,1035.0 122.0,1033.0 120.0,1032.0 118.0,1034.0 118.0,1050.0 120.0,1052.0 122.0,1051.0 122.0,1040.0 126.0,1036.0 128.0,1036.0" stroke="#2B4E64" stroke-width="1.5" /><polygon fill="none" points="155.0,1028.0 157.0,1030.0 157.0,1032.0 161.0,1034.0 159.0,1036.0 157.0,1036.0 157.0,1048.0 159.0,1048.0 161.0,1050.0 155.0,1051.0 153.0,1049.0 152.0,1036.0 150.0,1034.0 153.0,1032.0" stroke="#2B4E64" stroke-width="1.5" /><polygon fill="none" points="90.0,1028.0 92.0,1030.0 92.0,1032.0 94.0,1032.0 96.0,1034.0 94.0,1036.0 92.0,1036.0 92.0,1048.0 94.0,1048.0 96.0,1050.0 90.0,1051.0 88.0,1049.0 87.0,1036.0 85.0,1034.0 88.0,1032.0" stroke="#2B4E64" stroke-width="1.5" /><polygon fill="none" points="153.0,1028.0 153.0,1031.0 150.0,1033.0 150.0,1035.0 153.0,1037.0 154.0,1051.0 161.0,1051.0 161.0,1049.0 158.0,1048.0 158.0,1036.0 161.0,1035.0 161.0,1033.0 159.0,1033.0 156.0,1028.0" stroke="#2B4E64" stroke-width="1.5" /><polygon fill="none" points="88.0,1028.0 88.0,1031.0 85.0,1033.0 85.0,1035.0 88.0,1037.0 88.0,1049.0 89.0,1051.0 94.0,1052.0 96.0,1051.0 96.0,1049.0 93.0,1048.0 93.0,1036.0 96.0,1035.0 96.0,1033.0 93.0,1032.0 91.0,1028.0" stroke="#2B4E64" stroke-width="1.5" /><polygon fill="none" points="135.0,1026.0 143.0,1026.0 147.0,1033.0 144.0,1032.0 142.0,1029.0 136.0,1029.0 134.0,1031.0 135.0,1035.0 143.0,1037.0 148.0,1041.0 149.0,1044.0 148.0,1047.0 144.0,1051.0 135.0,1051.0 130.0,1046.0 132.0,1043.0 136.0,1048.0 142.0,1048.0 144.0,1047.0 145.0,1044.0 143.0,1041.0 137.0,1040.0 131.0,1036.0 130.0,1032.0" stroke="#2B4E64" stroke-width="1.5" /><polygon fill="none" points="203.0,1026.0 206.0,1027.0 206.0,1040.0 208.0,1040.0 214.0,1033.0 217.0,1032.0 213.0,1033.0 207.0,1040.0 206.0,1026.0 202.0,1027.0 201.0,1044.0 203.0,1051.0 206.0,1051.0 208.0,1044.0 216.0,1052.0 218.0,1050.0 211.0,1040.0 217.0,1034.0 212.0,1038.0 211.0,1042.0 216.0,1048.0 216.0,1052.0 211.0,1047.0 209.0,1043.0 207.0,1043.0 205.0,1051.0 202.0,1050.0" stroke="#2B4E64" stroke-width="1.5" /><polygon fill="none" points="134.0,1026.0 131.0,1029.0 130.0,1032.0 132.0,1038.0 137.0,1040.0 141.0,1040.0 145.0,1044.0 142.0,1048.0 137.0,1048.0 133.0,1043.0 130.0,1043.0 130.0,1047.0 134.0,1051.0 144.0,1051.0 148.0,1048.0 149.0,1044.0 148.0,1040.0 146.0,1038.0 137.0,1036.0 134.0,1032.0 137.0,1029.0 141.0,1029.0 144.0,1033.0 148.0,1033.0 148.0,1030.0 143.0,1026.0" stroke="#2B4E64" stroke-width="1.5" /><polygon fill="none" points="28.0,1025.0 30.0,1026.0 32.0,1030.0 37.0,1046.0 32.0,1030.0 30.0,1026.0 28.0,1025.0 27.0,1029.0 35.0,1051.0 41.0,1050.0 49.0,1026.0 45.0,1026.0 39.0,1043.0 39.0,1047.0 39.0,1043.0 44.0,1028.0 46.0,1026.0 49.0,1027.0 40.0,1051.0 36.0,1051.0 34.0,1049.0 27.0,1029.0" stroke="#2B4E64" stroke-width="1.5" /><polygon fill="none" points="635.0,647.0 646.0,647.0 648.0,648.0 649.0,650.0 647.0,652.0 642.0,651.0 637.0,652.0 637.0,654.0 647.0,655.0 651.0,659.0 651.0,662.0 646.0,667.0 640.0,668.0 634.0,667.0 630.0,664.0 630.0,662.0 632.0,660.0 639.0,663.0 644.0,662.0 644.0,660.0 635.0,659.0 630.0,655.0 630.0,652.0" stroke="#2B4E64" stroke-width="1.5" /><polygon fill="none" points="549.0,666.0 557.0,650.0 560.0,647.0 564.0,648.0 573.0,666.0 569.0,667.0 565.0,664.0 557.0,664.0 554.0,667.0" stroke="#2B4E64" stroke-width="1.5" /><polygon fill="none" points="475.0,647.0 490.0,648.0 489.0,652.0 485.0,652.0 485.0,662.0 488.0,662.0 490.0,664.0 489.0,667.0 475.0,667.0 473.0,664.0 475.0,662.0 479.0,662.0 479.0,652.0 475.0,652.0 473.0,649.0" stroke="#2B4E64" stroke-width="1.5" /><polygon fill="none" points="432.0,666.0 433.0,647.0 446.0,647.0 451.0,651.0 452.0,655.0 447.0,661.0 439.0,661.0 437.0,663.0 436.0,667.0" stroke="#2B4E64" stroke-width="1.5" /><polygon fill="none" points="388.0,666.0 396.0,650.0 399.0,647.0 403.0,648.0 412.0,666.0 408.0,667.0 404.0,664.0" stroke="#2B4E64" stroke-width="1.5" /><polygon fill="none" points="349.0,653.0 356.0,647.0 366.0,647.0 370.0,650.0 367.0,653.0 357.0,652.0 354.0,656.0 354.0,659.0 357.0,662.0 368.0,661.0 370.0,664.0 366.0,667.0 361.0,668.0 354.0,666.0 348.0,659.0" stroke="#2B4E64" stroke-width="1.5" /><polygon fill="none" points="633.0,648.0 630.0,652.0 631.0,657.0 635.0,659.0 639.0,659.0 643.0,663.0 635.0,662.0 633.0,660.0 630.0,661.0 629.0,663.0 630.0,665.0 634.0,667.0 641.0,668.0 648.0,666.0 651.0,662.0 651.0,658.0 647.0,655.0 642.0,655.0 637.0,653.0 639.0,651.0 648.0,653.0 649.0,648.0 646.0,647.0 635.0,647.0" stroke="#2B4E64" stroke-width="1.5" /><polygon fill="none" points="559.0,647.0 557.0,649.0 549.0,665.0 549.0,667.0 555.0,667.0 557.0,664.0 565.0,664.0 568.0,667.0 573.0,667.0 573.0,665.0 564.0,647.0" stroke="#2B4E64" stroke-width="1.5" /><polygon fill="none" points="474.0,647.0 473.0,650.0 474.0,652.0 479.0,653.0 478.0,662.0 475.0,662.0 473.0,665.0 474.0,667.0 490.0,667.0 490.0,663.0 485.0,661.0 486.0,652.0 490.0,652.0 490.0,647.0" stroke="#2B4E64" stroke-width="1.5" /><polygon fill="none" points="432.0,647.0 432.0,667.0 437.0,667.0 437.0,663.0 439.0,661.0 447.0,661.0 451.0,658.0 452.0,653.0 449.0,648.0 446.0,647.0" stroke="#2B4E64" stroke-width="1.5" /><polygon fill="none" points="398.0,647.0 396.0,649.0 388.0,665.0 388.0,667.0 394.0,667.0 396.0,664.0 404.0,664.0 407.0,667.0 412.0,667.0 412.0,665.0 403.0,647.0" stroke="#2B4E64" stroke-width="1.5" /><polygon fill="none" points="349.0,652.0 348.0,659.0 349.0,662.0 353.0,666.0 361.0,668.0 370.0,665.0 369.0,661.0 358.0,662.0 354.0,658.0 354.0,656.0 358.0,652.0 364.0,652.0 366.0,654.0 370.0,651.0 369.0,648.0 356.0,647.0 353.0,648.0" stroke="#2B4E64" stroke-width="1.5" /><polygon fill="none" points="731.0,593.0 737.0,587.0 741.0,585.0 753.0,585.0 757.0,587.0 763.0,593.0 764.0,602.0 755.0,611.0 751.0,612.0 739.0,611.0 732.0,605.0 730.0,601.0" stroke="#2B4E64" stroke-width="1.5" /><polygon fill="none" points="463.0,585.0 479.0,585.0 484.0,589.0 484.0,593.0 481.0,596.0 476.0,598.0 462.0,596.0" stroke="#2B4E64" stroke-width="1.5" /><polygon fill="none" points="231.0,593.0 238.0,586.0 252.0,585.0 257.0,587.0 264.0,595.0 264.0,601.0 258.0,609.0 251.0,612.0 243.0,612.0 239.0,611.0 231.0,604.0 230.0,602.0" stroke="#2B4E64" stroke-width="1.5" /><polygon fill="none" points="731.0,592.0 730.0,595.0 731.0,604.0 735.0,609.0 743.0,612.0 755.0,611.0 759.0,609.0 764.0,602.0 763.0,592.0 758.0,587.0 753.0,585.0 741.0,585.0 736.0,587.0" stroke="#2B4E64" stroke-width="1.5" /><polygon fill="none" points="462.0,585.0 462.0,597.0 476.0,598.0 482.0,596.0 484.0,593.0 483.0,587.0 479.0,585.0" stroke="#2B4E64" stroke-width="1.5" /><polygon fill="none" points="231.0,592.0 230.0,595.0 231.0,605.0 239.0,611.0 251.0,612.0 257.0,610.0 262.0,606.0 264.0,601.0 264.0,595.0 262.0,591.0 256.0,586.0 241.0,585.0 236.0,587.0" stroke="#2B4E64" stroke-width="1.5" /><polygon fill="none" points="679.0,578.0 704.0,578.0 706.0,580.0 705.0,585.0 697.0,585.0 695.0,587.0 695.0,611.0 706.0,613.0 706.0,617.0 704.0,619.0 679.0,619.0 677.0,617.0 678.0,612.0 688.0,611.0 688.0,587.0 686.0,585.0 677.0,584.0 677.0,580.0" stroke="#2B4E64" stroke-width="1.5" /><polygon fill="none" points="624.0,578.0 661.0,579.0 661.0,584.0 646.0,585.0 646.0,617.0 644.0,619.0 640.0,619.0 638.0,617.0 637.0,585.0 624.0,585.0 622.0,583.0 622.0,580.0" stroke="#2B4E64" stroke-width="1.5" /><polygon fill="none" points="576.0,583.0 586.0,578.0 599.0,578.0 608.0,582.0 610.0,585.0 606.0,590.0 597.0,585.0 587.0,585.0 582.0,587.0 577.0,592.0 576.0,602.0 577.0,605.0 581.0,609.0 588.0,612.0 597.0,612.0 603.0,610.0 607.0,607.0 610.0,611.0 609.0,614.0 598.0,619.0 586.0,619.0 577.0,615.0 570.0,607.0 568.0,601.0 569.0,592.0" stroke="#2B4E64" stroke-width="1.5" /><polygon fill="none" points="512.0,578.0 517.0,578.0 519.0,580.0 519.0,603.0 520.0,606.0 524.0,610.0 529.0,612.0 538.0,611.0 543.0,607.0 545.0,602.0 545.0,580.0 547.0,578.0 552.0,579.0 552.0,605.0 550.0,609.0 543.0,616.0 536.0,619.0 527.0,619.0 520.0,616.0 514.0,610.0 511.0,604.0" stroke="#2B4E64" stroke-width="1.5" /><polygon fill="none" points="456.0,578.0 481.0,578.0 484.0,579.0 490.0,584.0 492.0,588.0 491.0,596.0 483.0,604.0 490.0,614.0 492.0,619.0 486.0,619.0 474.0,604.0 462.0,604.0 462.0,617.0 460.0,619.0 456.0,619.0 454.0,617.0 454.0,580.0" stroke="#2B4E64" stroke-width="1.5" /><polygon fill="none" points="402.0,578.0 438.0,578.0 440.0,580.0 440.0,583.0 438.0,585.0 424.0,585.0 424.0,617.0 422.0,619.0 418.0,619.0 416.0,617.0 416.0,585.0 401.0,584.0" stroke="#2B4E64" stroke-width="1.5" /><polygon fill="none" points="174.0,583.0 184.0,578.0 197.0,578.0 206.0,582.0 208.0,585.0 204.0,590.0 195.0,585.0 185.0,585.0 180.0,587.0 175.0,592.0 174.0,602.0 175.0,605.0 179.0,609.0 186.0,612.0 195.0,612.0 201.0,610.0 205.0,607.0 208.0,611.0 207.0,614.0 196.0,619.0 184.0,619.0 175.0,615.0 168.0,607.0 166.0,601.0 167.0,592.0" stroke="#2B4E64" stroke-width="1.5" /><polygon fill="none" points="789.0,578.0 788.0,580.0 788.0,617.0 790.0,619.0 796.0,618.0 795.0,595.0 796.0,590.0 824.0,618.0 827.0,619.0 833.0,618.0 833.0,580.0 832.0,578.0 826.0,578.0 825.0,580.0 826.0,606.0 825.0,580.0 827.0,578.0 831.0,578.0 833.0,580.0 833.0,617.0 831.0,619.0 825.0,618.0 797.0,590.0 795.0,590.0 796.0,617.0 794.0,619.0 790.0,619.0 788.0,617.0 788.0,580.0 790.0,578.0 795.0,578.0 825.0,608.0 796.0,578.0" stroke="#2B4E64" stroke-width="1.5" /><polygon fill="none" points="736.0,579.0 746.0,577.0 755.0,578.0 763.0,582.0 768.0,587.0 772.0,595.0 772.0,602.0 765.0,613.0 757.0,618.0 741.0,619.0 735.0,617.0 727.0,611.0 723.0,605.0 722.0,601.0 723.0,592.0 726.0,587.0" stroke="#2B4E64" stroke-width="1.5" /><polygon fill="none" points="677.0,579.0 677.0,585.0 686.0,585.0 688.0,587.0 688.0,610.0 686.0,612.0 677.0,612.0 677.0,618.0 679.0,619.0 704.0,619.0 706.0,618.0 706.0,612.0 697.0,612.0 695.0,610.0 695.0,587.0 697.0,585.0 706.0,585.0 705.0,578.0" stroke="#2B4E64" stroke-width="1.5" /><polygon fill="none" points="623.0,578.0 622.0,580.0 623.0,585.0 636.0,585.0 638.0,587.0 638.0,618.0 644.0,619.0 646.0,617.0 647.0,585.0 661.0,585.0 662.0,581.0 661.0,578.0" stroke="#2B4E64" stroke-width="1.5" /><polygon fill="none" points="572.0,586.0 568.0,595.0 568.0,601.0 570.0,608.0 576.0,615.0 586.0,619.0 598.0,619.0 610.0,614.0 610.0,610.0 608.0,607.0 606.0,607.0 597.0,612.0 588.0,612.0 582.0,609.0 576.0,602.0 576.0,595.0 583.0,587.0 587.0,585.0 597.0,585.0 605.0,590.0 607.0,590.0 610.0,586.0 609.0,582.0 599.0,578.0 586.0,578.0 578.0,581.0" stroke="#2B4E64" stroke-width="1.5" /><polygon fill="none" points="511.0,578.0 511.0,604.0 514.0,611.0 519.0,616.0 527.0,619.0 536.0,619.0 544.0,616.0 550.0,610.0 552.0,605.0 552.0,578.0 545.0,579.0 545.0,602.0 543.0,606.0 535.0,612.0 526.0,611.0 519.0,603.0 519.0,580.0 518.0,578.0" stroke="#2B4E64" stroke-width="1.5" /><polygon fill="none" points="455.0,578.0 454.0,580.0 454.0,617.0 456.0,619.0 462.0,618.0 463.0,604.0 473.0,604.0 478.0,609.0 484.0,618.0 486.0,619.0 493.0,618.0 493.0,616.0 483.0,604.0 491.0,597.0 492.0,588.0 490.0,583.0 485.0,579.0 481.0,578.0" stroke="#2B4E64" stroke-width="1.5" /><polygon fill="none" points="401.0,578.0 401.0,585.0 416.0,586.0 416.0,618.0 422.0,619.0 424.0,617.0 425.0,585.0 439.0,585.0 440.0,583.0 439.0,578.0" stroke="#2B4E64" stroke-width="1.5" /><polygon fill="none" points="380.0,579.0 387.0,584.0 383.0,589.0 379.0,586.0 373.0,584.0 365.0,584.0 360.0,586.0 359.0,591.0 364.0,594.0 376.0,595.0 383.0,597.0 389.0,603.0 389.0,609.0 383.0,616.0 376.0,619.0 363.0,619.0 356.0,617.0 350.0,613.0 349.0,611.0 353.0,606.0 358.0,610.0 368.0,613.0 376.0,612.0 380.0,610.0 381.0,606.0 380.0,604.0 374.0,602.0 367.0,602.0 359.0,600.0 354.0,597.0 351.0,593.0 351.0,586.0 359.0,579.0 370.0,577.0" stroke="#2B4E64" stroke-width="1.5" /><polygon fill="none" points="288.0,579.0 288.0,618.0 294.0,619.0 296.0,617.0 295.0,598.0 296.0,590.0 324.0,618.0 331.0,619.0 333.0,617.0 333.0,580.0 332.0,578.0 325.0,579.0 326.0,608.0 325.0,580.0 327.0,578.0 331.0,578.0 333.0,580.0 333.0,617.0 331.0,619.0 326.0,619.0 297.0,590.0 295.0,590.0 296.0,617.0 294.0,619.0 290.0,619.0 288.0,617.0 288.0,580.0 290.0,578.0 295.0,578.0 324.0,608.0 324.0,606.0 296.0,578.0" stroke="#2B4E64" stroke-width="1.5" /><polygon fill="none" points="236.0,579.0 246.0,577.0 254.0,578.0 261.0,581.0 268.0,587.0 271.0,592.0 272.0,600.0 269.0,608.0 262.0,615.0 253.0,619.0 241.0,619.0 233.0,616.0 226.0,610.0 222.0,602.0 223.0,591.0 231.0,582.0" stroke="#2B4E64" stroke-width="1.5" /><polygon fill="none" points="170.0,586.0 167.0,592.0 166.0,601.0 168.0,608.0 174.0,615.0 184.0,619.0 196.0,619.0 208.0,614.0 208.0,610.0 206.0,607.0 204.0,607.0 195.0,612.0 186.0,612.0 180.0,609.0 174.0,602.0 174.0,595.0 181.0,587.0 185.0,585.0 195.0,585.0 203.0,590.0 205.0,590.0 208.0,586.0 207.0,582.0 197.0,578.0 184.0,578.0 176.0,581.0" stroke="#2B4E64" stroke-width="1.5" /><polygon fill="none" points="730.0,582.0 724.0,589.0 722.0,596.0 723.0,605.0 728.0,613.0 734.0,617.0 741.0,619.0 753.0,619.0 760.0,617.0 767.0,612.0 772.0,602.0 772.0,595.0 770.0,589.0 764.0,582.0 755.0,578.0 748.0,577.0 739.0,578.0" stroke="#2B4E64" stroke-width="1.5" /><polygon fill="none" points="356.0,580.0 351.0,586.0 351.0,594.0 353.0,597.0 362.0,601.0 377.0,603.0 381.0,607.0 376.0,612.0 368.0,613.0 363.0,612.0 354.0,606.0 351.0,607.0 349.0,610.0 349.0,613.0 356.0,617.0 363.0,619.0 376.0,619.0 384.0,616.0 389.0,609.0 388.0,601.0 385.0,598.0 380.0,596.0 364.0,594.0 359.0,590.0 359.0,588.0 362.0,585.0 365.0,584.0 373.0,584.0 382.0,589.0 385.0,588.0 387.0,585.0 386.0,582.0 377.0,578.0 370.0,577.0" stroke="#2B4E64" stroke-width="1.5" /><polygon fill="none" points="230.0,582.0 225.0,587.0 222.0,595.0 222.0,602.0 224.0,608.0 229.0,614.0 234.0,617.0 241.0,619.0 253.0,619.0 263.0,615.0 269.0,609.0 272.0,600.0 272.0,596.0 268.0,586.0 265.0,583.0 260.0,580.0 248.0,577.0 239.0,578.0" stroke="#2B4E64" stroke-width="1.5" /><polygon fill="none" points="474.0,506.0 475.0,500.0 580.0,509.0 704.0,518.0 710.0,520.0 709.0,523.0 483.0,508.0" stroke="#2B4E64" stroke-width="1.5" /><polygon fill="none" points="474.0,500.0 474.0,507.0 482.0,507.0 483.0,508.0 710.0,523.0 710.0,519.0 705.0,519.0 704.0,518.0 692.0,518.0 667.0,515.0" stroke="#2B4E64" stroke-width="1.5" /><polygon fill="none" points="474.0,472.0 475.0,467.0 481.0,467.0 701.0,500.0 709.0,502.0 709.0,505.0 490.0,476.0 482.0,474.0 476.0,474.0" stroke="#2B4E64" stroke-width="1.5" /><polygon fill="none" points="474.0,467.0 474.0,473.0 476.0,474.0 710.0,505.0 710.0,502.0 701.0,500.0 648.0,493.0 628.0,489.0 488.0,468.0" stroke="#2B4E64" stroke-width="1.5" /><polygon fill="none" points="475.0,433.0 693.0,480.0 710.0,485.0 709.0,488.0 684.0,482.0 674.0,481.0 620.0,469.0 478.0,441.0 474.0,439.0" stroke="#2B4E64" stroke-width="1.5" /><polygon fill="none" points="474.0,433.0 474.0,440.0 487.0,442.0 492.0,444.0 620.0,469.0 710.0,488.0 710.0,484.0" stroke="#2B4E64" stroke-width="1.5" /><polygon fill="none" points="475.0,399.0 535.0,417.0 542.0,418.0 549.0,421.0 556.0,422.0 706.0,465.0 710.0,467.0 708.0,470.0 615.0,445.0 604.0,441.0 479.0,408.0 474.0,405.0" stroke="#2B4E64" stroke-width="1.5" /><polygon fill="none" points="474.0,399.0 474.0,406.0 479.0,408.0 710.0,470.0 709.0,466.0" stroke="#2B4E64" stroke-width="1.5" /><polygon fill="none" points="428.0,385.0 390.0,501.0 388.0,503.0 354.0,504.0 351.0,499.0 325.0,416.0 325.0,413.0 323.0,409.0 324.0,406.0 352.0,400.0 354.0,402.0 368.0,464.0 375.0,463.0 390.0,393.0 395.0,390.0 423.0,384.0" stroke="#2B4E64" stroke-width="1.5" /><polygon fill="none" points="428.0,385.0 423.0,384.0 390.0,392.0 375.0,462.0 373.0,464.0 369.0,464.0 367.0,462.0 360.0,427.0 353.0,400.0 323.0,406.0 325.0,416.0 353.0,504.0 389.0,503.0" stroke="#2B4E64" stroke-width="1.5" /><polygon fill="none" points="475.0,366.0 708.0,448.0 709.0,452.0 475.0,373.0" stroke="#2B4E64" stroke-width="1.5" /><polygon fill="none" points="474.0,366.0 474.0,373.0 707.0,452.0 710.0,452.0 710.0,449.0 700.0,445.0 686.0,441.0 480.0,367.0" stroke="#2B4E64" stroke-width="1.5" /><polygon fill="none" points="290.0,380.0 466.0,333.0 475.0,332.0 709.0,431.0 709.0,435.0 474.0,339.0 467.0,340.0 463.0,342.0 448.0,345.0 296.0,386.0 296.0,507.0 332.0,506.0 333.0,505.0 345.0,505.0 345.0,501.0 314.0,404.0 315.0,401.0 354.0,392.0 359.0,393.0 370.0,440.0 370.0,446.0 372.0,446.0 374.0,431.0 384.0,387.0 386.0,385.0 431.0,375.0 438.0,375.0 395.0,508.0 393.0,510.0 356.0,512.0 356.0,516.0 360.0,527.0 361.0,533.0 363.0,534.0 537.0,534.0 672.0,536.0 710.0,539.0 708.0,541.0 358.0,541.0 355.0,538.0 348.0,512.0 332.0,512.0 309.0,514.0 289.0,513.0" stroke="#2B4E64" stroke-width="1.5" /><polygon fill="none" points="289.0,380.0 289.0,514.0 347.0,512.0 350.0,517.0 355.0,538.0 358.0,541.0 708.0,541.0 710.0,540.0 710.0,537.0 673.0,537.0 672.0,536.0 605.0,536.0 537.0,534.0 363.0,534.0 360.0,530.0 356.0,516.0 357.0,511.0 375.0,511.0 376.0,510.0 395.0,509.0 395.0,506.0 438.0,377.0 438.0,374.0 384.0,386.0 373.0,440.0 371.0,445.0 359.0,392.0 354.0,392.0 314.0,401.0 318.0,417.0 345.0,501.0 344.0,505.0 310.0,507.0 296.0,506.0 296.0,387.0 298.0,385.0 448.0,345.0 463.0,342.0 467.0,340.0 474.0,339.0 610.0,395.0 696.0,429.0 706.0,434.0 710.0,435.0 710.0,431.0 475.0,332.0 466.0,333.0 353.0,363.0 338.0,368.0" stroke="#2B4E64" stroke-width="1.5" /></svg>