<?xml version="1.0" encoding="utf-8"?>
<svg version="1.1" id="Layer_1" xmlns="http://www.w3.org/2000/svg" xmlns:xlink="http://www.w3.org/1999/xlink" x="0px" y="0px"
	 viewBox="0 0 595.28 841.89" style="enable-background:new 0 0 595.28 841.89;" xml:space="preserve">
<style type="text/css">
	.st-navy{fill:#2B4E64;}
	.st-blue{fill:#2E6583;}
	.st-text{fill:#2B4E64;font-family:'JetBrains Mono','Tahoma-Bold',sans-serif;font-size:42px;font-weight:900;}
</style>
<g transform="translate(0, 100)">
	<!-- Main 3D Building Frame (Deep Ocean Navy #2B4E64) -->
	<g class="st-navy">
		<path d="M510.94,409.19c-8.58-3.48-16.88-6.85-25.18-10.22c-56.21-22.81-112.42-45.61-168.63-68.44
			c-20.82-8.45-41.59-17.04-62.46-25.36c-2.23-0.89-5.16-1.08-7.48-0.48c-21.03,5.4-42,11.06-62.99,16.62
			c-31.12,8.25-62.24,16.47-93.35,24.72c-10.61,2.82-21.19,5.77-31.84,8.46c-2.4,0.61-3.23,1.57-3.22,4.03
			c0.06,42.25,0.05,84.51,0.03,126.76c0,2.17,0.29,3.56,3.04,3.42c16.35-0.81,32.71-1.5,49.07-2.26c0.96-0.04,1.91-0.35,3.2-0.6
			c-0.26-1.3-0.37-2.4-0.69-3.42c-10.6-33.82-21.21-67.64-31.85-101.45c-2.67-8.48-2.73-8.45,5.98-10.36
			c13.28-2.92,26.55-5.87,40.47-8.95c4.5,19.87,8.96,39.58,13.42,59.29c0.31-0.01,0.62-0.01,0.93-0.02
			c1.49-6.91,2.99-13.81,4.47-20.72c3.03-14.16,5.99-28.33,9.16-42.46c0.24-1.08,1.73-2.44,2.86-2.7
			c17.76-4.07,35.56-7.98,53.35-11.9c0.81-0.18,1.68-0.02,3.07-0.02c-0.56,2.01-0.99,3.76-1.54,5.47
			c-14.61,44.72-29.21,89.44-43.85,134.14c-2.71,8.28-2.78,8.31-11.47,8.78c-9.73,0.52-19.47,0.92-29.21,1.39
			c-1.35,0.06-2.69,0.21-4.69,0.36c0.9,3.62,1.67,6.94,2.56,10.23c0.95,3.49,2.31,6.9,2.94,10.44c0.57,3.2,2.12,3.86,5.11,3.86
			c37.38-0.09,74.76-0.39,112.14,0.02c66.12,0.72,132.24,1.9,198.36,2.87c21.5,0.32,43,0.58,64.5,0.88c1,0.01,2.08-0.12,2.96,0.21
			c0.62,0.24,1.36,1.17,1.35,1.77c-0.01,0.53-0.92,1.3-1.57,1.49c-0.93,0.26-1.98,0.09-2.98,0.09c-126.64,0-253.28-0.01-379.92,0.04
			c-2.92,0-4.66-0.32-5.48-3.82c-1.96-8.37-4.64-16.57-6.85-24.89c-0.65-2.44-1.86-3.09-4.25-2.96c-19.1,1-38.2,1.8-57.29,2.91
			c-3.64,0.21-4.68-0.66-4.67-4.35c0.11-46.13,0.12-92.26-0.02-138.38c-0.01-3.24,1.24-4.33,3.99-5.05
			c31.98-8.4,63.96-16.84,95.93-25.32c28.35-7.52,56.69-15.1,85.03-22.64c5.43-1.44,10.84-2.96,16.32-4.18
			c1.42-0.32,3.19,0.01,4.57,0.59c36.71,15.42,73.4,30.89,110.08,46.39c47.96,20.26,95.9,40.55,143.86,60.81
			C510.12,405.08,512.45,405.55,510.94,409.19z M85.42,377.88c0.31,1.23,0.42,1.82,0.6,2.39c10.73,34.17,21.49,68.33,32.11,102.54
			c0.78,2.51,2.04,3.02,4.31,2.92c10.49-0.49,20.98-1.09,31.47-1.22c3.85-0.05,5.45-1.55,6.56-4.99
			c12.57-38.83,25.26-77.62,37.91-116.42c1.06-3.27,2.03-6.56,3.32-10.72c-4.45,0.97-8.04,1.75-11.63,2.53
			c-9.15,1.99-18.29,3.99-27.44,5.98c-2.09,0.46-3.33,1.35-3.81,3.82c-1.96,10.17-4.25,20.28-6.4,30.42
			c-3.01,14.16-6.09,28.31-8.96,42.51c-0.6,2.99-2.24,3.35-4.76,3.32c-2.28-0.03-3.41-0.4-3.98-3.1
			c-3.35-15.75-7.02-31.43-10.58-47.14c-1.51-6.65-3.05-13.3-4.66-20.33C107.87,372.94,96.75,375.39,85.42,377.88z"/>
	</g>
	<!-- Parallel Beams (Classic Ocean Blue #2E6583) -->
	<g class="st-blue">
		<path d="M511.01,428.51c-12.86-4.36-25.48-8.64-38.11-12.91c-36.41-12.31-72.83-24.59-109.23-36.92
			c-31.45-10.65-62.88-21.36-94.32-32.04c-3.78-1.28-7.56-2.58-11.36-3.79c-6.46-2.06-6.5-2.08-5.59-9.54
			c5.56,1.92,11.03,3.77,16.47,5.69c28.71,10.15,57.42,20.32,86.13,30.5c26.11,9.26,52.21,18.56,78.33,27.82
			c24.94,8.84,49.89,17.64,74.84,26.45C510.15,424.47,512.47,424.96,511.01,428.51z"/>
		<path d="M496.03,504.71c-24.06-1.63-48.11-3.25-72.17-4.89c-24.8-1.7-49.6-3.46-74.41-5.13c-24.06-1.62-48.12-3.17-72.18-4.76
			c-7.35-0.49-14.7-1.15-22.06-1.5c-3.42-0.16-3.2-2.27-3.27-4.61c-0.09-2.98,1.85-2.74,3.78-2.59c12.58,0.99,25.15,1.99,37.73,3
			c20.17,1.62,40.34,3.27,60.51,4.89c20.92,1.69,41.84,3.38,62.76,5.04c20.80,1.65,41.6,3.26,62.39,4.89
			c9.71,0.76,19.43,1.48,29.13,2.44c1.17,0.12,2.21,1.61,3.3,2.47c-1.18,0.51-2.37,1.47-3.54,1.46c-3.99-0.04-7.98-0.43-11.97-0.68
			C496.03,504.73,496.03,504.72,496.03,504.71z"/>
		<path d="M510.97,447.71c-4.29-1.14-8.59-2.26-12.87-3.41c-29.03-7.83-58.07-15.64-87.09-23.5c-27.34-7.41-54.66-14.88-81.99-22.31
			c-22.28-6.05-44.56-12.09-66.83-18.13c-1.68-0.46-3.35-0.97-5.05-1.39c-5.61-1.37-5.92-1.87-4.56-8.45
			c1.77,0.38,3.58,0.64,5.32,1.14c37.43,10.72,74.85,21.48,112.29,32.19c31.66,9.06,63.34,18.06,95.01,27.1
			c14.27,4.08,28.54,8.17,42.78,12.34C509.76,443.81,512.62,443.89,510.97,447.71z"/>
		<path d="M511.2,467.09c-8.68-1.76-16.97-3.44-25.26-5.12c-24.71-4.98-49.42-9.92-74.12-14.93c-18.58-3.77-37.14-7.66-55.73-11.43
			c-24.57-4.99-49.16-9.91-73.73-14.88c-8.44-1.71-16.86-3.47-25.29-5.22c-5.71-1.19-5.89-1.49-4.5-8.15
			c4.81,0.97,9.65,1.87,14.46,2.92c28.28,6.14,56.56,12.31,84.83,18.49c27.67,6.05,55.32,12.16,82.99,18.2
			c24.25,5.3,48.52,10.54,72.78,15.82C509.57,463.21,512.11,463.14,511.2,467.09z"/>
		<path d="M510.89,486.3c-8.65-1.13-17.3-2.23-25.94-3.38c-18.2-2.43-36.39-4.88-54.58-7.35c-16.96-2.31-33.9-4.69-50.86-6.99
			c-23.39-3.17-46.8-6.29-70.19-9.46c-18.19-2.47-36.38-4.95-54.57-7.5c-5.25-0.74-1.77-4.6-3.04-7.64
			c6.77,0.98,12.78,1.82,18.77,2.72c20.75,3.13,41.49,6.28,62.24,9.41c21.12,3.19,42.23,6.38,63.35,9.55
			c20.38,3.06,40.75,6.11,61.13,9.15c17.29,2.58,34.59,5.11,51.86,7.79c1.04,0.16,1.89,1.55,2.82,2.36
			C511.56,485.42,511.23,485.86,510.89,486.3z"/>
	</g>
	<!-- NOTE: White fill on V has been COMPLETELY REMOVED (transparent inside) -->
</g>
<text transform="matrix(1 0 0 1 44.2175 626.4343)" class="st-text">LAB</text>
</svg>
